<?xml version="1.0" encoding="UTF-8" standalone="no"?>
<svg
   xmlns:dc="http://purl.org/dc/elements/1.1/"
   xmlns:cc="http://creativecommons.org/ns#"
   xmlns:rdf="http://www.w3.org/1999/02/22-rdf-syntax-ns#"
   xmlns:svg="http://www.w3.org/2000/svg"
   xmlns="http://www.w3.org/2000/svg"
   xmlns:sodipodi="http://sodipodi.sourceforge.net/DTD/sodipodi-0.dtd"
   xmlns:inkscape="http://www.inkscape.org/namespaces/inkscape"
   inkscape:version="1.0 (4035a4fb49, 2020-05-01)"
   sodipodi:docname="logo-white.svg"
   height="127.92529551282212"
   width="370.44033292571584"
   style="width: 370.44px; height: 127.925px; position: absolute; top: 50%; left: 50%; transform: translate(-50%, -50%) scale(1); z-index: 0; cursor: pointer;"
   version="1.1"
   id="svg12">
  <sodipodi:namedview
     inkscape:current-layer="svg12"
     inkscape:window-maximized="1"
     inkscape:window-y="-9"
     inkscape:window-x="-9"
     inkscape:cy="63.962646"
     inkscape:cx="126.77454"
     inkscape:zoom="4.0978259"
     showgrid="false"
     id="namedview11"
     inkscape:window-height="1011"
     inkscape:window-width="1920"
     inkscape:pageshadow="2"
     inkscape:pageopacity="0"
     guidetolerance="10"
     gridtolerance="10"
     objecttolerance="10"
     borderopacity="1"
     bordercolor="#666666"
     pagecolor="#ffffff" />
  <metadata
     id="metadata16">
    <rdf:RDF>
      <cc:Work
         rdf:about="">
        <dc:format>image/svg+xml</dc:format>
        <dc:type
           rdf:resource="http://purl.org/dc/dcmitype/StillImage" />
        <dc:title></dc:title>
      </cc:Work>
    </rdf:RDF>
  </metadata>
  <defs
     id="SvgjsDefs1001" />
  <g
     style="fill:#ffffff;fill-opacity:1"
     id="SvgjsG1007"
     featurekey="symbolFeature-0"
     transform="matrix(1.4194304505098163,0,0,1.4194304505098163,-25.691691695697422,-6.943582738174506)"
     fill="#086972">
    <path
       style="fill:#ffffff;fill-opacity:1"
       d="M24.6,67c-4.2-4.9-6.5-10.9-6.5-17c0-15.5,14.3-28.2,31.9-28.2S81.9,34.5,81.9,50S67.6,78.2,50,78.2c-2.9,0-5.8-0.3-8.6-1  c-0.9-0.2-1.4-1.1-1.2-1.9c0.2-0.9,1.1-1.4,1.9-1.2c2.5,0.6,5.2,0.9,7.8,0.9c15.8,0,28.7-11.2,28.7-25c0-13.8-12.9-25-28.7-25  S21.3,36.2,21.3,50c0,5.7,2.2,11.1,6.3,15.6c0.4,0.4,0.5,1.1,0.3,1.6c-0.9,2.3-2.1,4.2-3.8,5.7c2.4,0.1,5.6-0.3,8.6-2.1  c0.8-0.5,1.7-0.2,2.2,0.5c0.5,0.8,0.2,1.7-0.5,2.2c-4.8,2.9-10,2.7-12.6,2.3c-1-0.1-1.8-0.9-2-1.9c-0.2-1,0.2-2,1-2.6  C22.4,70.5,23.7,68.9,24.6,67z M52,50c0-1.1-0.9-2-2-2c-1.1,0-2,0.9-2,2c0,1.1,0.9,2,2,2C51.1,52,52,51.1,52,50z M43.2,50  c0-1.1-0.9-2-2-2c-1.1,0-2,0.9-2,2c0,1.1,0.9,2,2,2C42.3,52,43.2,51.1,43.2,50z M60.8,50c0-1.1-0.9-2-2-2s-2,0.9-2,2  c0,1.1,0.9,2,2,2S60.8,51.1,60.8,50z"
       id="path3" />
  </g>
  <g
     style="fill:#006972;fill-opacity:1"
     id="SvgjsG1008"
     featurekey="nameFeature-0"
     transform="matrix(3.0354548873327083,0,0,3.0354548873327083,107.35745181933245,-32.05440488396096)"
     fill="#086972">
    <path
       style="fill:#ffffff;fill-opacity:1"
       d="M9.92 16.6 l0 18.8 c0 2.96 0.24 4.4 2.52 4.4 l0 0.2 l-11.24 0 l0 -0.2 c2.28 0 2.48 -1.44 2.52 -4.4 l0 -18.8 c-0.04 -2.92 -0.24 -4.4 -2.52 -4.4 l0 -0.2 l11.24 0 l0 0.2 c-2.28 0 -2.52 1.48 -2.52 4.4 z M22.478 40.08 c0.8 0 1.48 -0.28 1.76 -0.4 l0 0.2 c-0.6 0.32 -1.36 0.52 -2.52 0.52 c-2.72 0 -7.36 -0.4 -7.36 -6.32 l0 -13.64 l-1.84 0 l0 -0.2 l1.84 0 l0 -1.48 c2.12 0 5.04 -0.88 5.8 -3.4 l0.08 0 l0.12 0 l0 4.88 l3.56 0 l0 0.2 l-3.56 0 l0 14.44 c0 2.68 0.2 5.2 2.12 5.2 z M43.556 40.12 c0.6 0 1.16 -0.28 1.36 -0.44 l0 0.24 c-0.48 0.28 -1.28 0.48 -2.04 0.48 c-2.32 0 -6.48 -0.32 -7.16 -3.72 c-0.76 1.6 -1.92 2.88 -3.6 3.36 c-3 0.92 -8.12 0.56 -7.96 -3.8 c0.2 -4.96 5.72 -4.36 9.72 -5.72 c0.76 -0.28 1.32 -0.56 1.72 -0.88 l0 -3.68 c0 -3.4 0.2 -5.96 -2.72 -5.96 c-2.6 0 -4.24 0.92 -4.84 2.16 c-0.56 1.28 0.72 1.8 1.04 2.92 c0.32 1.08 -0.56 2.28 -1.96 2 c-1.2 -0.24 -1.96 -1.72 -1.28 -3.36 c0.64 -1.48 2.88 -3.88 7.16 -3.88 c3.76 0 8.64 1.28 8.64 6.68 l0 9.32 c0 2.72 0.08 4.28 1.92 4.28 z M32.796 39.6 c1.36 -0.64 2.24 -1.84 2.88 -3.2 c-0.04 -0.24 -0.08 -0.48 -0.08 -0.76 l0 -5.76 c-0.36 0.24 -0.88 0.48 -1.52 0.72 c-1.96 0.72 -4.24 1.08 -4.48 4.72 c-0.28 3.64 0.76 5.52 3.2 4.28 z M52.514 16.76 l0 18.64 c0 3.28 0.4 4.4 2.52 4.4 l0 0.2 l-11.04 0 l0 -0.2 c2.12 0 2.48 -1.16 2.52 -4.4 l0 -20.28 c-0.04 -3.24 -0.4 -4.36 -2.52 -4.36 l0 -0.2 l9.2 0 l0 0.2 c-0.4 0.2 -0.68 1.96 -0.68 6 z M63.272000000000006 35.4 l0 0.04 c0 3.24 0.36 4.36 2.52 4.36 l0 0.2 l-11.08 0 l0 -0.2 c2.16 0 2.52 -1.16 2.52 -4.4 l0 -10.6 c0 -3.24 -0.36 -4.36 -2.52 -4.36 l0 -0.2 l9.2 0 l0 0.2 c-0.36 0.2 -0.64 1.96 -0.64 6 l0 8.96 z M60.232000000000006 17.12 c-1.72 0 -3.12 -1.48 -3.12 -3.28 c0 -1.84 1.4 -3.28 3.12 -3.28 c1.76 0 3.16 1.44 3.16 3.28 c0 1.8 -1.4 3.28 -3.16 3.28 z M85.31 40.12 c0.6 0 1.16 -0.28 1.36 -0.44 l0 0.24 c-0.48 0.28 -1.28 0.48 -2.04 0.48 c-2.32 0 -6.48 -0.32 -7.16 -3.72 c-0.76 1.6 -1.92 2.88 -3.6 3.36 c-3 0.92 -8.12 0.56 -7.96 -3.8 c0.2 -4.96 5.72 -4.36 9.72 -5.72 c0.76 -0.28 1.32 -0.56 1.72 -0.88 l0 -3.68 c0 -3.4 0.2 -5.96 -2.72 -5.96 c-2.6 0 -4.24 0.92 -4.84 2.16 c-0.56 1.28 0.72 1.8 1.04 2.92 c0.32 1.08 -0.56 2.28 -1.96 2 c-1.2 -0.24 -1.96 -1.72 -1.28 -3.36 c0.64 -1.48 2.88 -3.88 7.16 -3.88 c3.76 0 8.64 1.28 8.64 6.68 l0 9.32 c0 2.72 0.08 4.28 1.92 4.28 z M74.55 39.6 c1.36 -0.64 2.24 -1.84 2.88 -3.2 c-0.04 -0.24 -0.08 -0.48 -0.08 -0.76 l0 -5.76 c-0.36 0.24 -0.88 0.48 -1.52 0.72 c-1.96 0.72 -4.24 1.08 -4.48 4.72 c-0.28 3.64 0.76 5.52 3.2 4.28 z"
       id="path6" />
  </g>
  <g
     style="fill:#ffffff;fill-opacity:1"
     id="SvgjsG1009"
     featurekey="sloganFeature-0"
     transform="matrix(1.1305536714463527,0,0,1.1305536714463527,108.93526912772671,105.09330947102072)"
     fill="#086972">
    <path
       style="fill:#ffffff;fill-opacity:1"
       d="M11.465 5.888999999999999 l2.9199 0 l0 14.111 l-3.3887 0 l-6.25 -10.088 l0 10.088 l-2.9199 0 l0 -14.111 l3.3496 0 l6.2891 10.029 l0 -10.029 z M22.9541328125 9.961 l2.8125 0 l0 10.039 l-2.666 0 l-0.068359 -1.2109 c-0.70313 0.88867 -1.8164 1.4063 -3.1934 1.4063 c-2.4121 0 -3.7402 -1.2598 -3.7402 -3.4766 l0 -6.7578 l2.8223 0 l0 6.1523 c0 1.3281 0.83008 1.8164 1.8066 1.8164 c1.1621 0 2.2168 -0.58594 2.2266 -2.4316 l0 -5.5371 z M39.209375 9.766 c2.1484 0 3.5352 1.0938 3.5352 3.1543 l0 7.0801 l-2.8125 0 l0 -6.2793 c0 -1.1816 -0.74219 -1.6992 -1.582 -1.6992 c-1.0059 0 -1.8945 0.57617 -1.8945 2.3145 l0 5.6641 l-2.8418 0 l0 -6.25 c0 -1.2012 -0.72266 -1.7285 -1.6113 -1.7285 c-0.97656 0 -1.8848 0.57617 -1.8848 2.4609 l0 5.5176 l-2.8027 0 l0 -10.039 l2.8027 0 l0 1.1816 c0.66406 -0.88867 1.6797 -1.377 2.9102 -1.377 c1.4551 0 2.5488 0.52734 3.0762 1.5039 c0.70313 -1.0059 1.7773 -1.5039 3.1055 -1.5039 z M53.559132812499996 14.834 l-0.029297 0.67383 l-7.4414 0 c0.11719 1.6699 1.2305 2.4707 2.5684 2.4707 c1.0059 0 1.7871 -0.46875 2.168 -1.3574 l2.5781 0.38086 c-0.66406 2.0313 -2.4707 3.1934 -4.7266 3.1934 c-3.2422 0 -5.3613 -1.9141 -5.3613 -5.2148 s2.1777 -5.2344 5.2734 -5.2344 c2.8418 0 4.9609 1.5723 4.9707 5.0879 z M48.6084328125 11.7383 c-1.2793 0 -2.168 0.5957 -2.4414 1.9336 l4.6094 0 c-0.14648 -1.2793 -1.0156 -1.9336 -2.168 -1.9336 z M57.031259375 11.5527 c0.50781 -0.88867 1.8262 -1.709 3.2813 -1.709 l0 2.5098 c-2.1289 0 -3.1445 0.625 -3.1445 2.7539 l0 4.8926 l-2.832 0 l0 -10.039 l2.6953 0 l0 1.5918 z M65.2783078125 20.19531 c-3.1934 0 -5.498 -1.9434 -5.498 -5.2246 c0 -3.2617 2.2852 -5.2051 5.498 -5.2051 c3.2324 0 5.5078 1.9434 5.5078 5.2051 c0 3.2813 -2.2852 5.2246 -5.5078 5.2246 z M65.2490078125 17.959 c1.6309 0 2.7441 -1.1914 2.7441 -2.9883 s-1.1133 -2.9883 -2.7441 -2.9883 c-1.5723 0 -2.6758 1.1914 -2.6758 2.9883 s1.1035 2.9883 2.6758 2.9883 z M75.04879375 20.19531 c-2.2559 0 -4.0039 -0.88867 -4.3652 -2.793 l2.3535 -0.66406 c0.30273 1.0742 1.0645 1.4941 2.0117 1.4941 c0.69336 0 1.4453 -0.21484 1.4258 -1.0059 c-0.0097656 -1.0449 -1.5918 -1.1328 -3.1836 -1.6992 c-1.2012 -0.41992 -2.3535 -1.0645 -2.3535 -2.7539 c0 -2.0605 1.709 -3.0078 3.9355 -3.0078 c1.9531 0 3.584 0.74219 3.9746 2.6563 l-2.1777 0.48828 c-0.30273 -0.9375 -0.9668 -1.2695 -1.7871 -1.2695 c-0.74219 0 -1.377 0.26367 -1.377 0.88867 c0 0.79102 1.1621 0.94727 2.4219 1.2891 c1.5527 0.41992 3.252 1.0938 3.252 3.2422 c0 2.3047 -1.9629 3.1348 -4.1309 3.1348 z M88.0712890625 17.2754 c0 1.2305 0.11719 2.0117 0.24414 2.4512 l0 0.27344 l-2.627 0 l-0.22461 -1.0938 c-0.75195 0.9082 -2.0508 1.2891 -3.2227 1.2891 c-1.582 0 -3.125 -0.70313 -3.125 -2.793 c0 -2.0801 1.5527 -2.7832 3.6523 -3.2422 l1.6504 -0.37109 c0.71289 -0.16602 0.9668 -0.41016 0.9668 -0.82031 c0 -0.98633 -0.89844 -1.2598 -1.6895 -1.2598 c-1.0156 0 -1.7871 0.40039 -1.9629 1.5332 l-2.4902 -0.44922 c0.41992 -2.0801 1.9434 -3.0273 4.6094 -3.0273 c2.0117 0 4.2188 0.5957 4.2188 3.623 l0 3.8867 z M83.1200890625 18.291 c1.3379 0 2.4121 -0.88867 2.4121 -2.8809 l-2.3828 0.67383 c-0.78125 0.18555 -1.3477 0.45898 -1.3477 1.1328 c0 0.72266 0.5957 1.0742 1.3184 1.0742 z M101.33828125 9.766 c2.1484 0 3.5352 1.0938 3.5352 3.1543 l0 7.0801 l-2.8125 0 l0 -6.2793 c0 -1.1816 -0.74219 -1.6992 -1.582 -1.6992 c-1.0059 0 -1.8945 0.57617 -1.8945 2.3145 l0 5.6641 l-2.8418 0 l0 -6.25 c0 -1.2012 -0.72266 -1.7285 -1.6113 -1.7285 c-0.97656 0 -1.8848 0.57617 -1.8848 2.4609 l0 5.5176 l-2.8027 0 l0 -10.039 l2.8027 0 l0 1.1816 c0.66406 -0.88867 1.6797 -1.377 2.9102 -1.377 c1.4551 0 2.5488 0.52734 3.0762 1.5039 c0.70313 -1.0059 1.7773 -1.5039 3.1055 -1.5039 z M115.6880390625 14.834 l-0.029297 0.67383 l-7.4414 0 c0.11719 1.6699 1.2305 2.4707 2.5684 2.4707 c1.0059 0 1.7871 -0.46875 2.168 -1.3574 l2.5781 0.38086 c-0.66406 2.0313 -2.4707 3.1934 -4.7266 3.1934 c-3.2422 0 -5.3613 -1.9141 -5.3613 -5.2148 s2.1777 -5.2344 5.2734 -5.2344 c2.8418 0 4.9609 1.5723 4.9707 5.0879 z M110.7373390625 11.7383 c-1.2793 0 -2.168 0.5957 -2.4414 1.9336 l4.6094 0 c-0.14648 -1.2793 -1.0156 -1.9336 -2.168 -1.9336 z M122.392565625 9.766 c2.4121 0 3.7402 1.25 3.7402 3.4766 l0 6.7578 l-2.8223 0 l0 -6.1523 c0 -1.3379 -0.83008 -1.8262 -1.7969 -1.8262 c-1.1621 0 -2.2168 0.58594 -2.2363 2.4414 l0 5.5371 l-2.8125 0 l0 -10.039 l2.8125 0 l0 1.1133 c0.70313 -0.83008 1.7871 -1.3086 3.1152 -1.3086 z M131.2353390625 20 c-1.9531 0 -3.0664 -1.1328 -3.0664 -3.1348 l0 -4.7461 l-1.9727 0 l0 -2.1582 l0.63477 0 c1.0645 0 1.6504 -0.41016 1.6504 -1.9141 l0 -1.3281 l2.5391 0 l0 3.2422 l2.0703 0 l0 2.1582 l-2.0703 0 l0 4.4434 c0 0.89844 0.43945 1.2988 1.1621 1.2988 l0.9082 0 l0 2.1387 l-1.8555 0 z M143.349171875 14.834 l-0.029297 0.67383 l-7.4414 0 c0.11719 1.6699 1.2305 2.4707 2.5684 2.4707 c1.0059 0 1.7871 -0.46875 2.168 -1.3574 l2.5781 0.38086 c-0.66406 2.0313 -2.4707 3.1934 -4.7266 3.1934 c-3.2422 0 -5.3613 -1.9141 -5.3613 -5.2148 s2.1777 -5.2344 5.2734 -5.2344 c2.8418 0 4.9609 1.5723 4.9707 5.0879 z M138.398471875 11.7383 c-1.2793 0 -2.168 0.5957 -2.4414 1.9336 l4.6094 0 c-0.14648 -1.2793 -1.0156 -1.9336 -2.168 -1.9336 z M145.8837984375 20.19531 c-0.86914 0 -1.6016 -0.72266 -1.6016 -1.6016 s0.73242 -1.6211 1.6016 -1.6211 c0.88867 0 1.6211 0.74219 1.6211 1.6211 s-0.73242 1.6016 -1.6211 1.6016 z M150.64450625 8.457 c-0.88867 0 -1.6309 -0.72266 -1.6309 -1.6211 c0 -0.88867 0.74219 -1.6113 1.6309 -1.6113 c0.86914 0 1.6113 0.72266 1.6113 1.6113 c0 0.89844 -0.74219 1.6211 -1.6113 1.6211 z M149.20900625 20 l0 -10.039 l2.832 0 l0 10.039 l-2.832 0 z M157.3290890625 20 c-1.9531 0 -3.0664 -1.1328 -3.0664 -3.1348 l0 -4.7461 l-1.9727 0 l0 -2.1582 l0.63477 0 c1.0645 0 1.6504 -0.41016 1.6504 -1.9141 l0 -1.3281 l2.5391 0 l0 3.2422 l2.0703 0 l0 2.1582 l-2.0703 0 l0 4.4434 c0 0.89844 0.43945 1.2988 1.1621 1.2988 l0.9082 0 l0 2.1387 l-1.8555 0 z"
       id="path9" />
  </g>
</svg>
